<svg width="412" height="412" fill="none" xmlns="http://www.w3.org/2000/svg">
 <style>
    rect {
      fill: white;
    }
    @media (prefers-color-scheme: dark) {
      rect {
        fill: black;
      }
    }
  </style>
  <rect width="412" height="412" rx="50"/>
  <path fill-rule="evenodd" clip-rule="evenodd" d="M54.661 338.686c-4.881 4.881-4.881 12.796 0 17.677 4.882 4.882 12.796 4.882 17.678 0l124.258-124.258c4.881-4.881 4.881-12.796 0-17.677-4.882-4.882-12.796-4.882-17.678 0L54.661 338.686zM182.173 132.2a12.502 12.502 0 000 22.361l47.56 23.78 7.83 46.975a12.498 12.498 0 0021.168 6.784l31.083-31.083 55.942 7.992a12.5 12.5 0 0012.948-17.965l-23.832-47.663 23.832-47.663a12.5 12.5 0 00-12.948-17.965l-55.942 7.992-31.083-31.083a12.5 12.5 0 00-21.168 6.784l-7.83 46.974-47.56 23.78zm64.434 26.627l-30.893-15.446 30.893-15.447a12.5 12.5 0 006.74-9.125l4.882-29.294 18.327 18.327a12.499 12.499 0 0010.607 3.535l38.511-5.501-15.957 31.915a12.496 12.496 0 000 11.18l15.957 31.915-38.511-5.502a12.502 12.502 0 00-10.607 3.536l-18.327 18.327-4.882-29.295a12.503 12.503 0 00-6.74-9.125zM54.661 267.605c-4.881-4.882-4.881-12.796 0-17.678l62.129-62.129c4.882-4.881 12.796-4.881 17.678 0 4.881 4.882 4.881 12.796 0 17.678l-62.13 62.129c-4.88 4.881-12.795 4.881-17.677 0zm88.759 71.081c-4.882 4.881-4.882 12.796 0 17.677 4.881 4.882 12.796 4.882 17.677 0l62.129-62.129c4.882-4.881 4.882-12.796 0-17.677-4.881-4.882-12.796-4.882-17.677 0l-62.129 62.129z" fill="url(#paint0_linear)"/>
  <defs>
    <linearGradient id="paint0_linear" x1="51" y1="205.512" x2="360.024" y2="205.512" gradientUnits="userSpaceOnUse">
      <stop stop-color="#E535AB"/>
      <stop offset="1" stop-color="#FF5C5C"/>
    </linearGradient>
  </defs>
</svg>